<?xml version="1.0" encoding="utf-8"?>
<svg width="634" height="209" viewBox="4.672 3.906 191.989 190.76" fill="none" xmlns="http://www.w3.org/2000/svg" xmlns:bx="https://boxy-svg.com" preserveAspectRatio="none"><defs><bx:export><bx:file format="svg"/></bx:export></defs><rect x="10" y="9" width="181" height="181" rx="15" fill="#009688"/><rect x="10" y="9" width="181" height="181" rx="15" stroke="#009688" stroke-width="6"/><path d="M138.987 149.896C134.419 153.525 128.475 156.341 121.153 158.343C113.832 160.345 104.822 161.347 94.1216 161.347C83.4841 161.347 72.1582 160.377 60.144 158.437V34.7285C72.2834 32.7887 82.7958 31.8188 91.6812 31.8188C100.629 31.8188 107.95 32.6635 113.645 34.353C119.401 36.0425 124.094 38.3264 127.724 41.2048C134.857 46.7739 138.424 54.0012 138.424 62.8867C138.424 71.7096 135.201 79.0307 128.756 84.8501C136.39 87.2279 142.303 91.7332 146.496 98.366C150.313 104.311 152.221 110.912 152.221 118.171C152.221 125.367 151.158 131.53 149.03 136.661C146.965 141.792 143.617 146.204 138.987 149.896ZM85.0171 81.3772C87.6452 81.8152 90.9303 82.0342 94.8725 82.0342C98.8146 82.0342 102.037 81.5336 104.54 80.5325C107.106 79.4687 109.077 78.1547 110.453 76.5903C112.706 74.0248 113.832 70.4581 113.832 65.8902C113.832 56.3164 108.201 51.5295 96.9374 51.5295C92.1818 51.5295 88.2084 51.7172 85.0171 52.0927V81.3772ZM98.9085 101.463C93.6523 101.463 89.0218 101.808 85.0171 102.496V139.383C89.3973 140.509 93.9965 141.073 98.8146 141.073C103.633 141.073 107.857 140.509 111.486 139.383C115.178 138.194 118.275 136.599 120.778 134.596C125.847 130.466 128.381 125.21 128.381 118.828C128.381 107.251 118.557 101.463 98.9085 101.463Z" fill="white"/></svg>